{
  "accessors": [
    {
      "bufferView": 1,
      "componentType": 5126,
      "count": 898,
      "max": [
        1.5521727800369263,
        2.2375271320343018,
        1.5521727800369263
      ],
      "min": [
        -1.5521727800369263,
        -2.2375271320343018,
        -1.5521727800369263
      ],
      "type": "VEC3"
    },
    {
      "bufferView": 1,
      "byteOffset": 10776,
      "componentType": 5126,
      "count": 898,
      "max": [
        0.9945604205131531,
        1.0,
        0.9945604205131531
      ],
      "min": [
        -0.9945604205131531,
        -1.0,
        -0.9945604205131531
      ],
      "type": "VEC3"
    },
    {
      "bufferView": 0,
      "componentType": 5125,
      "count": 5376,
      "type": "SCALAR"
    },
    {
      "bufferView": 1,
      "byteOffset": 21552,
      "componentType": 5126,
      "count": 1680,
      "max": [
        0.9781390428543091,
        0.42822521924972534,
        0.9781391024589539
      ],
      "min": [
        -0.9781390428543091,
        0.015947990119457245,
        -0.9781390428543091
      ],
      "type": "VEC3"
    },
    {
      "bufferView": 1,
      "byteOffset": 41712,
      "componentType": 5126,
      "count": 1680,
      "max": [
        1.0,
        1.0,
        1.0
      ],
      "min": [
        -1.0,
        -1.0,
        -1.0
      ],
      "type": "VEC3"
    },
    {
      "bufferView": 0,
      "byteOffset": 21504,
      "componentType": 5125,
      "count": 9600,
      "type": "SCALAR"
    },
    {
      "bufferView": 1,
      "byteOffset": 61872,
      "componentType": 5126,
      "count": 384,
      "max": [
        1.413984775543213,
        3.2974424362182617,
        1.413984775543213
      ],
      "min": [
        -1.413984775543213,
        1.180296540260315,
        -1.413984775543213
      ],
      "type": "VEC3"
    },
    {
      "bufferView": 1,
      "byteOffset": 66480,
      "componentType": 5126,
      "count": 384,
      "max": [
        0.9941368103027344,
        0.7655839323997498,
        0.9941368103027344
      ],
      "min": [
        -0.9941368103027344,
        -0.7256582379341125,
        -0.9941368103027344
      ],
      "type": "VEC3"
    },
    {
      "bufferView": 0,
      "byteOffset": 59904,
      "componentType": 5125,
      "count": 2304,
      "type": "SCALAR"
    }
  ],
  "asset": {
    "extras": {
      "author": "David Zerba (https://sketchfab.com/DavidZerba)",
      "license": "CC-BY-4.0 (http://creativecommons.org/licenses/by/4.0/)",
      "source": "https://sketchfab.com/3d-models/coffee-shop-cup-37e6805f2b7a4158a1d61fe75f8e2a33",
      "title": "Coffee Shop Cup"
    },
    "generator": "Sketchfab-12.68.0",
    "version": "2.0"
  },
  "bufferViews": [
    {
      "buffer": 0,
      "byteLength": 69120,
      "name": "floatBufferViews",
      "target": 34963
    },
    {
      "buffer": 0,
      "byteLength": 71088,
      "byteOffset": 69120,
      "byteStride": 12,
      "name": "floatBufferViews",
      "target": 34962
    }
  ],
  "buffers": [
    {
      "byteLength": 140208,
      "uri": "scene.bin"
    }
  ],
  "materials": [
    {
      "doubleSided": true,
      "name": "material",
      "pbrMetallicRoughness": {
        "baseColorFactor": [
          0.9213560469775339,
          0.13979881313784057,
          0.13979881313784057,
          1.0
        ]
      }
    },
    {
      "doubleSided": true,
      "name": "material_1",
      "pbrMetallicRoughness": {
        "baseColorFactor": [
          0.8,
          0.8,
          0.8,
          1.0
        ],
        "metallicFactor": 0.0,
        "roughnessFactor": 0.5
      }
    },
    {
      "doubleSided": true,
      "name": "Sleeve",
      "pbrMetallicRoughness": {
        "baseColorFactor": [
          1.0,
          0.8732783583045658,
          0.5612388103215987,
          1.0
        ]
      }
    }
  ],
  "meshes": [
    {
      "name": "Object_0",
      "primitives": [
        {
          "attributes": {
            "NORMAL": 1,
            "POSITION": 0
          },
          "indices": 2,
          "material": 0,
          "mode": 4
        }
      ]
    },
    {
      "name": "Object_1",
      "primitives": [
        {
          "attributes": {
            "NORMAL": 4,
            "POSITION": 3
          },
          "indices": 5,
          "material": 1,
          "mode": 4
        }
      ]
    },
    {
      "name": "Object_2",
      "primitives": [
        {
          "attributes": {
            "NORMAL": 7,
            "POSITION": 6
          },
          "indices": 8,
          "material": 2,
          "mode": 4
        }
      ]
    }
  ],
  "nodes": [
    {
      "children": [
        1
      ],
      "matrix": [
        0.23331591486930847,
        0.0,
        0.0,
        0.0,
        0.0,
        5.180654013987784e-17,
        -0.23331591486930847,
        0.0,
        0.0,
        0.23331591486930847,
        5.180654013987784e-17,
        0.0,
        0.0,
        0.0,
        0.0,
        1.0
      ],
      "name": "Sketchfab_model"
    },
    {
      "children": [
        2
      ],
      "name": "root"
    },
    {
      "children": [
        3
      ],
      "matrix": [
        1.0,
        0.0,
        0.0,
        0.0,
        0.0,
        2.220446049250313e-16,
        1.0,
        0.0,
        0.0,
        -1.0,
        2.220446049250313e-16,
        0.0,
        0.0,
        0.0,
        0.0,
        1.0
      ],
      "name": "GLTF_SceneRootNode"
    },
    {
      "children": [
        4,
        6,
        8
      ],
      "matrix": [
        1.5733212232589722,
        0.0,
        0.0,
        0.0,
        0.0,
        2.4385054111480713,
        0.0,
        0.0,
        0.0,
        0.0,
        1.5733212232589722,
        0.0,
        0.0,
        2.4388115406036377,
        0.0,
        1.0
      ],
      "name": "Coffe Cup_Parent_3"
    },
    {
      "children": [
        5
      ],
      "matrix": [
        0.6355981230735779,
        0.0,
        0.0,
        0.0,
        0.0,
        0.4100872576236725,
        0.0,
        0.0,
        0.0,
        0.0,
        0.6355981230735779,
        0.0,
        -0.0008470073225907981,
        -0.08254414796829224,
        0.0,
        1.0
      ],
      "name": "Cup_0"
    },
    {
      "mesh": 0,
      "name": "Object_5"
    },
    {
      "children": [
        7
      ],
      "matrix": [
        -8.731579875330848e-08,
        0.0,
        1.0358520746231044,
        0.0,
        -0.0,
        0.6278299689292908,
        0.0,
        0.0,
        -1.0358520746231044,
        0.0,
        -8.731579875330848e-08,
        0.0,
        0.0,
        0.7243560552597046,
        -0.0008470072643831372,
        1.0
      ],
      "name": "Lid_1"
    },
    {
      "mesh": 1,
      "name": "Object_7"
    },
    {
      "children": [
        9
      ],
      "matrix": [
        0.6355981230735779,
        0.0,
        0.0,
        0.0,
        0.0,
        0.4100872576236725,
        0.0,
        0.0,
        0.0,
        0.0,
        0.6355981230735779,
        0.0,
        -0.0008470073225907981,
        -1.000125527381897,
        0.0,
        1.0
      ],
      "name": "Sleeve_2"
    },
    {
      "mesh": 2,
      "name": "Object_9"
    }
  ],
  "scene": 0,
  "scenes": [
    {
      "name": "Sketchfab_Scene",
      "nodes": [
        0
      ]
    }
  ]
}
