{
  "accessors": [
    {
      "bufferView": 2,
      "componentType": 5126,
      "count": 5411,
      "max": [
        1.0,
        0.1953359991312027,
        1.0
      ],
      "min": [
        -1.0,
        -0.1953359991312027,
        -1.0
      ],
      "type": "VEC3"
    },
    {
      "bufferView": 2,
      "byteOffset": 64932,
      "componentType": 5126,
      "count": 5411,
      "max": [
        0.9972502589225769,
        0.999479353427887,
        0.9996373653411865
      ],
      "min": [
        -0.9972502589225769,
        -0.9999231100082397,
        -0.9996545314788818
      ],
      "type": "VEC3"
    },
    {
      "bufferView": 3,
      "componentType": 5126,
      "count": 5411,
      "max": [
        1.0,
        0.9899585247039795,
        1.0,
        1.0
      ],
      "min": [
        -1.0,
        -0.944061815738678,
        -0.999994695186615,
        -1.0
      ],
      "type": "VEC4"
    },
    {
      "bufferView": 1,
      "componentType": 5126,
      "count": 5411,
      "max": [
        0.9932609796524048,
        0.9932609796524048
      ],
      "min": [
        0.006739129777997732,
        0.057716500014066696
      ],
      "type": "VEC2"
    },
    {
      "bufferView": 0,
      "componentType": 5125,
      "count": 24648,
      "type": "SCALAR"
    }
  ],
  "asset": {
    "extras": {
      "author": "AK STUDIO (https://sketchfab.com/inven2000)",
      "license": "CC-BY-4.0 (http://creativecommons.org/licenses/by/4.0/)",
      "source": "https://sketchfab.com/3d-models/toasts-ae97003dff3d45ac9f17c2b8f3a25398",
      "title": "Toasts"
    },
    "generator": "Sketchfab-12.66.0",
    "version": "2.0"
  },
  "bufferViews": [
    {
      "buffer": 0,
      "byteLength": 98592,
      "name": "floatBufferViews",
      "target": 34963
    },
    {
      "buffer": 0,
      "byteLength": 43288,
      "byteOffset": 98592,
      "byteStride": 8,
      "name": "floatBufferViews",
      "target": 34962
    },
    {
      "buffer": 0,
      "byteLength": 129864,
      "byteOffset": 141880,
      "byteStride": 12,
      "name": "floatBufferViews",
      "target": 34962
    },
    {
      "buffer": 0,
      "byteLength": 86576,
      "byteOffset": 271744,
      "byteStride": 16,
      "name": "floatBufferViews",
      "target": 34962
    }
  ],
  "buffers": [
    {
      "byteLength": 358320,
      "uri": "scene.bin"
    }
  ],
  "images": [
    {
      "uri": "textures/Toasts_baseColor.jpeg"
    },
    {
      "uri": "textures/Toasts_metallicRoughness.png"
    },
    {
      "uri": "textures/Toasts_normal.png"
    }
  ],
  "materials": [
    {
      "doubleSided": true,
      "name": "Toasts",
      "normalTexture": {
        "index": 2
      },
      "pbrMetallicRoughness": {
        "baseColorFactor": [
          0.7982127330986387,
          0.7982127330986387,
          0.7982127330986387,
          1.0
        ],
        "baseColorTexture": {
          "index": 0
        },
        "metallicRoughnessTexture": {
          "index": 1
        }
      }
    }
  ],
  "meshes": [
    {
      "name": "defaultMaterial",
      "primitives": [
        {
          "attributes": {
            "NORMAL": 1,
            "POSITION": 0,
            "TANGENT": 2,
            "TEXCOORD_0": 3
          },
          "indices": 4,
          "material": 0,
          "mode": 4
        }
      ]
    }
  ],
  "nodes": [
    {
      "children": [
        1
      ],
      "matrix": [
        0.12974044680595398,
        0.0,
        0.0,
        0.0,
        0.0,
        2.880816625382509e-17,
        -0.12974044680595398,
        0.0,
        0.0,
        0.12974044680595398,
        2.880816625382509e-17,
        0.0,
        0.0,
        0.0,
        0.0,
        1.0
      ],
      "name": "Sketchfab_model"
    },
    {
      "children": [
        2
      ],
      "matrix": [
        1.0,
        0.0,
        0.0,
        0.0,
        0.0,
        -4.371139006309477e-08,
        0.999999999999999,
        0.0,
        0.0,
        -0.999999999999999,
        -4.371139006309477e-08,
        0.0,
        0.0,
        0.0,
        0.0,
        1.0
      ],
      "name": "Collada visual scene group"
    },
    {
      "children": [
        3
      ],
      "name": "Toasts"
    },
    {
      "mesh": 0,
      "name": "defaultMaterial"
    }
  ],
  "samplers": [
    {
      "magFilter": 9729,
      "minFilter": 9987,
      "wrapS": 10497,
      "wrapT": 10497
    }
  ],
  "scene": 0,
  "scenes": [
    {
      "name": "Sketchfab_Scene",
      "nodes": [
        0
      ]
    }
  ],
  "textures": [
    {
      "sampler": 0,
      "source": 0
    },
    {
      "sampler": 0,
      "source": 1
    },
    {
      "sampler": 0,
      "source": 2
    }
  ]
}
