{
  "accessors": [
    {
      "bufferView": 2,
      "componentType": 5126,
      "count": 2899,
      "max": [
        0.44448697566986084,
        0.37123405933380127,
        0.8595431447029114
      ],
      "min": [
        -0.6150656938552856,
        -0.5279519557952881,
        -0.005253239534795284
      ],
      "type": "VEC3"
    },
    {
      "bufferView": 2,
      "byteOffset": 34788,
      "componentType": 5126,
      "count": 2899,
      "max": [
        0.999506950378418,
        0.9996334314346313,
        0.9999580383300781
      ],
      "min": [
        -0.99968421459198,
        -0.999916672706604,
        -0.9998966455459595
      ],
      "type": "VEC3"
    },
    {
      "bufferView": 3,
      "componentType": 5126,
      "count": 2899,
      "max": [
        0.9990081787109375,
        0.9999502897262573,
        0.9993191361427307,
        1.0
      ],
      "min": [
        -1.0,
        -0.9997085928916931,
        -0.9968441724777222,
        1.0
      ],
      "type": "VEC4"
    },
    {
      "bufferView": 1,
      "componentType": 5126,
      "count": 2899,
      "max": [
        0.9953993558883667,
        0.9985677599906921
      ],
      "min": [
        0.0062773749232292175,
        0.010542601346969604
      ],
      "type": "VEC2"
    },
    {
      "bufferView": 1,
      "byteOffset": 23192,
      "componentType": 5126,
      "count": 2899,
      "max": [
        0.9953993558883667,
        0.9985677599906921
      ],
      "min": [
        0.0062773749232292175,
        0.010542601346969604
      ],
      "type": "VEC2"
    },
    {
      "bufferView": 1,
      "byteOffset": 46384,
      "componentType": 5126,
      "count": 2899,
      "max": [
        0.9953993558883667,
        0.9985677599906921
      ],
      "min": [
        0.0062773749232292175,
        0.010542601346969604
      ],
      "type": "VEC2"
    },
    {
      "bufferView": 0,
      "componentType": 5125,
      "count": 15936,
      "type": "SCALAR"
    }
  ],
  "asset": {
    "extras": {
      "author": "Duznot (https://sketchfab.com/duz_vr)",
      "license": "CC-BY-4.0 (http://creativecommons.org/licenses/by/4.0/)",
      "source": "https://sketchfab.com/3d-models/wallace-mug-7433fdb49fed4aea9210a841c30aa62c",
      "title": "Wallace Mug"
    },
    "generator": "Sketchfab-12.68.0",
    "version": "2.0"
  },
  "bufferViews": [
    {
      "buffer": 0,
      "byteLength": 63744,
      "name": "floatBufferViews",
      "target": 34963
    },
    {
      "buffer": 0,
      "byteLength": 69576,
      "byteOffset": 63744,
      "byteStride": 8,
      "name": "floatBufferViews",
      "target": 34962
    },
    {
      "buffer": 0,
      "byteLength": 69576,
      "byteOffset": 133320,
      "byteStride": 12,
      "name": "floatBufferViews",
      "target": 34962
    },
    {
      "buffer": 0,
      "byteLength": 46384,
      "byteOffset": 202896,
      "byteStride": 16,
      "name": "floatBufferViews",
      "target": 34962
    }
  ],
  "buffers": [
    {
      "byteLength": 249280,
      "uri": "scene.bin"
    }
  ],
  "images": [
    {
      "uri": "textures/Wallace_baseColor.png"
    },
    {
      "uri": "textures/Wallace_metallicRoughness.png"
    },
    {
      "uri": "textures/Wallace_normal.png"
    }
  ],
  "materials": [
    {
      "doubleSided": true,
      "name": "Wallace",
      "normalTexture": {
        "index": 2
      },
      "pbrMetallicRoughness": {
        "baseColorTexture": {
          "index": 0
        },
        "metallicRoughnessTexture": {
          "index": 1
        }
      }
    }
  ],
  "meshes": [
    {
      "name": "Mug_Wallace_0",
      "primitives": [
        {
          "attributes": {
            "NORMAL": 1,
            "POSITION": 0,
            "TANGENT": 2,
            "TEXCOORD_0": 3,
            "TEXCOORD_1": 4,
            "TEXCOORD_2": 5
          },
          "indices": 6,
          "material": 0,
          "mode": 4
        }
      ]
    }
  ],
  "nodes": [
    {
      "children": [
        1
      ],
      "matrix": [
        1.0,
        0.0,
        0.0,
        0.0,
        0.0,
        2.220446049250313e-16,
        -1.0,
        0.0,
        0.0,
        1.0,
        2.220446049250313e-16,
        0.0,
        0.0,
        0.0,
        0.0,
        1.0
      ],
      "name": "Sketchfab_model"
    },
    {
      "children": [
        2
      ],
      "matrix": [
        0.009999999776482582,
        0.0,
        0.0,
        0.0,
        0.0,
        0.0,
        0.009999999776482582,
        0.0,
        0.0,
        -0.009999999776482582,
        0.0,
        0.0,
        0.0,
        0.0,
        0.0,
        1.0
      ],
      "name": "WallaceMug.fbx"
    },
    {
      "children": [
        3
      ],
      "name": "RootNode"
    },
    {
      "children": [
        4
      ],
      "matrix": [
        100.0,
        0.0,
        0.0,
        0.0,
        0.0,
        -1.629206793918314e-05,
        -99.99999999999868,
        0.0,
        0.0,
        99.99999999999868,
        -1.629206793918314e-05,
        0.0,
        0.0,
        0.0,
        0.0,
        1.0
      ],
      "name": "Mug"
    },
    {
      "mesh": 0,
      "name": "Mug_Wallace_0"
    }
  ],
  "samplers": [
    {
      "magFilter": 9729,
      "minFilter": 9987,
      "wrapS": 10497,
      "wrapT": 10497
    }
  ],
  "scene": 0,
  "scenes": [
    {
      "name": "Sketchfab_Scene",
      "nodes": [
        0
      ]
    }
  ],
  "textures": [
    {
      "sampler": 0,
      "source": 0
    },
    {
      "sampler": 0,
      "source": 1
    },
    {
      "sampler": 0,
      "source": 2
    }
  ]
}
