{
  "accessors": [
    {
      "bufferView": 2,
      "componentType": 5126,
      "count": 367,
      "max": [
        0.059682294726371765,
        0.03485697880387306,
        0.04986491799354553
      ],
      "min": [
        -0.0649474710226059,
        -0.05453062057495117,
        -0.0014323731884360313
      ],
      "type": "VEC3"
    },
    {
      "bufferView": 2,
      "byteOffset": 4404,
      "componentType": 5126,
      "count": 367,
      "max": [
        0.9845719337463379,
        0.9957894682884216,
        0.9946011304855347
      ],
      "min": [
        -0.9984646439552307,
        -0.9943127036094666,
        -0.9981184005737305
      ],
      "type": "VEC3"
    },
    {
      "bufferView": 3,
      "componentType": 5126,
      "count": 367,
      "max": [
        0.9949982762336731,
        0.9957107901573181,
        0.9979585409164429,
        1.0
      ],
      "min": [
        -0.9977866411209106,
        -0.9973172545433044,
        -0.9951288104057312,
        1.0
      ],
      "type": "VEC4"
    },
    {
      "bufferView": 1,
      "componentType": 5126,
      "count": 367,
      "max": [
        0.9897583723068237,
        0.9910768866539001
      ],
      "min": [
        0.0031033754348754883,
        0.008923113346099854
      ],
      "type": "VEC2"
    },
    {
      "bufferView": 1,
      "byteOffset": 2936,
      "componentType": 5126,
      "count": 367,
      "max": [
        0.9897583723068237,
        0.9910768866539001
      ],
      "min": [
        0.0031033754348754883,
        0.008923113346099854
      ],
      "type": "VEC2"
    },
    {
      "bufferView": 0,
      "componentType": 5125,
      "count": 2106,
      "type": "SCALAR"
    }
  ],
  "asset": {
    "extras": {
      "author": "Meerschaum Digital (https://sketchfab.com/meerschaumdigital)",
      "license": "CC-BY-4.0 (http://creativecommons.org/licenses/by/4.0/)",
      "source": "https://sketchfab.com/3d-models/croissant-game-ready-2k-pbr-c512d041ead447f091eeb31982558d80",
      "title": "Croissant (Game Ready / 2K PBR)"
    },
    "generator": "Sketchfab-14.8.0",
    "version": "2.0"
  },
  "bufferViews": [
    {
      "buffer": 0,
      "byteLength": 8424,
      "name": "floatBufferViews",
      "target": 34963
    },
    {
      "buffer": 0,
      "byteLength": 5872,
      "byteOffset": 8424,
      "byteStride": 8,
      "name": "floatBufferViews",
      "target": 34962
    },
    {
      "buffer": 0,
      "byteLength": 8808,
      "byteOffset": 14296,
      "byteStride": 12,
      "name": "floatBufferViews",
      "target": 34962
    },
    {
      "buffer": 0,
      "byteLength": 5872,
      "byteOffset": 23104,
      "byteStride": 16,
      "name": "floatBufferViews",
      "target": 34962
    }
  ],
  "buffers": [
    {
      "byteLength": 28976,
      "uri": "scene.bin"
    }
  ],
  "images": [
    {
      "uri": "textures/Material.001_baseColor.jpeg"
    },
    {
      "uri": "textures/Material.001_metallicRoughness.png"
    },
    {
      "uri": "textures/Material.001_normal.jpeg"
    }
  ],
  "materials": [
    {
      "doubleSided": true,
      "name": "Material.001",
      "normalTexture": {
        "index": 2
      },
      "occlusionTexture": {
        "index": 1
      },
      "pbrMetallicRoughness": {
        "baseColorTexture": {
          "index": 0
        },
        "metallicFactor": 0.0,
        "metallicRoughnessTexture": {
          "index": 1
        }
      }
    }
  ],
  "meshes": [
    {
      "name": "Croissant_Material.001_0",
      "primitives": [
        {
          "attributes": {
            "NORMAL": 1,
            "POSITION": 0,
            "TANGENT": 2,
            "TEXCOORD_0": 3,
            "TEXCOORD_1": 4
          },
          "indices": 5,
          "material": 0,
          "mode": 4
        }
      ]
    }
  ],
  "nodes": [
    {
      "children": [
        1
      ],
      "matrix": [
        0.9998133778572083,
        0.01931963488459587,
        4.289820695245943e-18,
        0.0,
        0.0,
        2.220446049250313e-16,
        -1.0,
        0.0,
        -0.01931963488459587,
        0.9998133778572083,
        2.2200316648506485e-16,
        0.0,
        0.0,
        0.0,
        0.0,
        1.0
      ],
      "name": "Sketchfab_model"
    },
    {
      "children": [
        2
      ],
      "matrix": [
        0.009999999776482582,
        0.0,
        0.0,
        0.0,
        0.0,
        0.0,
        0.009999999776482582,
        0.0,
        0.0,
        -0.009999999776482582,
        0.0,
        0.0,
        0.0,
        0.0,
        0.0,
        1.0
      ],
      "name": "089adc6cacb24d1b9be2c5b7a8014888.fbx"
    },
    {
      "children": [
        3
      ],
      "name": "RootNode"
    },
    {
      "children": [
        4
      ],
      "matrix": [
        100.0,
        0.0,
        0.0,
        0.0,
        0.0,
        -1.629206793918314e-05,
        -99.99999999999868,
        0.0,
        0.0,
        99.99999999999868,
        -1.629206793918314e-05,
        0.0,
        0.0,
        0.0,
        0.0,
        1.0
      ],
      "name": "Croissant"
    },
    {
      "mesh": 0,
      "name": "Croissant_Material.001_0"
    }
  ],
  "samplers": [
    {
      "magFilter": 9729,
      "minFilter": 9987,
      "wrapS": 10497,
      "wrapT": 10497
    }
  ],
  "scene": 0,
  "scenes": [
    {
      "name": "Sketchfab_Scene",
      "nodes": [
        0
      ]
    }
  ],
  "textures": [
    {
      "sampler": 0,
      "source": 0
    },
    {
      "sampler": 0,
      "source": 1
    },
    {
      "sampler": 0,
      "source": 2
    }
  ]
}
